/* XPM */
static const char * const build_xpm[] = {
"48 48 714 2",
"  	c None",
". 	c #634D3A",
"+ 	c #9C8871",
"@ 	c #654E3D",
"# 	c #35271C",
"$ 	c #000000",
"% 	c #050101",
"& 	c #0B0301",
"* 	c #080100",
"= 	c #0F0402",
"- 	c #B0A08D",
"; 	c #7C6859",
"> 	c #9C8B7C",
", 	c #523D31",
"' 	c #271D16",
") 	c #200806",
"! 	c #C6918A",
"~ 	c #8D2C22",
"{ 	c #541812",
"] 	c #6E1C15",
"^ 	c #020000",
"/ 	c #B6A996",
"( 	c #716052",
"_ 	c #453324",
": 	c #3F2E24",
"< 	c #C3B7B0",
"[ 	c #443529",
"} 	c #1B140F",
"| 	c #110403",
"1 	c #581A14",
"2 	c #49120D",
"3 	c #49130E",
"4 	c #42110C",
"5 	c #0A0101",
"6 	c #A79A87",
"7 	c #837566",
"8 	c #423124",
"9 	c #231B15",
"0 	c #4B423A",
"a 	c #6B5D52",
"b 	c #D1C9C3",
"c 	c #3D3127",
"d 	c #16100C",
"e 	c #371915",
"f 	c #B46B60",
"g 	c #60221C",
"h 	c #69201A",
"i 	c #681F19",
"j 	c #96836F",
"k 	c #9F9185",
"l 	c #5D4A39",
"m 	c #0F0C09",
"n 	c #3A3632",
"o 	c #9A9C99",
"p 	c #453B33",
"q 	c #8A7C71",
"r 	c #C4BAB0",
"s 	c #2E241C",
"t 	c #110C09",
"u 	c #1D0806",
"v 	c #62221C",
"w 	c #541611",
"x 	c #46120D",
"y 	c #A2917D",
"z 	c #AEA397",
"A 	c #806B58",
"B 	c #25201B",
"C 	c #525251",
"D 	c #949493",
"E 	c #656665",
"F 	c #6E6259",
"G 	c #72665C",
"H 	c #D4CDC6",
"I 	c #261D18",
"J 	c #2E0E0B",
"K 	c #A64D41",
"L 	c #603429",
"M 	c #968772",
"N 	c #B7AEA3",
"O 	c #7F6C5D",
"P 	c #0E0B09",
"Q 	c #211C18",
"R 	c #BABAB9",
"S 	c #494948",
"T 	c #B4B5B4",
"U 	c #565655",
"V 	c #B7B9B7",
"W 	c #85807A",
"X 	c #66594F",
"Y 	c #BDB2A7",
"Z 	c #3A2D23",
"` 	c #080504",
" .	c #2B231D",
"..	c #190605",
"+.	c #9F5546",
"@.	c #998A77",
"#.	c #B0A599",
"$.	c #6F6254",
"%.	c #0B0907",
"&.	c #1F1B18",
"*.	c #5C5C5A",
"=.	c #B9B9B7",
"-.	c #40403F",
";.	c #CFD1CF",
">.	c #565656",
",.	c #D2D2D2",
"'.	c #939391",
").	c #918D88",
"!.	c #3C2E25",
"~.	c #A39385",
"{.	c #5C4B40",
"].	c #29211B",
"^.	c #423B32",
"/.	c #9A8B77",
"(.	c #A99D91",
"_.	c #564B40",
":.	c #070605",
"<.	c #1A1715",
"[.	c #A6A6A5",
"}.	c #4F514F",
"|.	c #3A3B3A",
"1.	c #E4E4E4",
"2.	c #606060",
"3.	c #A5A6A5",
"4.	c #9D9D9C",
"5.	c #75716E",
"6.	c #281E17",
"7.	c #A29387",
"8.	c #6F5D4F",
"9.	c #090605",
"0.	c #271F19",
"a.	c #B4A58D",
"b.	c #978777",
"c.	c #BEB5AA",
"d.	c #4B4139",
"e.	c #080605",
"f.	c #1E1B19",
"g.	c #666665",
"h.	c #B1B1B0",
"i.	c #5A5A5A",
"j.	c #BEBEBD",
"k.	c #555555",
"l.	c #EAEAEA",
"m.	c #696969",
"n.	c #E7E7E7",
"o.	c #A9A9A9",
"p.	c #C2C3C2",
"q.	c #686968",
"r.	c #9C9996",
"s.	c #2E221B",
"t.	c #837569",
"u.	c #685446",
"v.	c #AA9A85",
"w.	c #B5A997",
"x.	c #D2CCC3",
"y.	c #3D352D",
"z.	c #080705",
"A.	c #23201C",
"B.	c #B2B2B1",
"C.	c #AEAEAE",
"D.	c #7D7D7D",
"E.	c #DADADA",
"F.	c #777777",
"G.	c #999999",
"H.	c #EBEBEB",
"I.	c #A7A7A7",
"J.	c #DDDDDD",
"K.	c #A5A5A3",
"L.	c #6E6B68",
"M.	c #332921",
"N.	c #68564A",
"O.	c #634D3D",
"P.	c #16100B",
"Q.	c #1B130F",
"R.	c #A0907A",
"S.	c #D1C8B9",
"T.	c #A2968A",
"U.	c #28221C",
"V.	c #0B0908",
"W.	c #4A4641",
"X.	c #828280",
"Y.	c #EFEFEF",
"Z.	c #858585",
"`.	c #E9E9E9",
" +	c #979797",
".+	c #EEEEEE",
"++	c #9A9A9A",
"@+	c #6F6F6F",
"#+	c #D4D4D4",
"$+	c #5F5F5D",
"%+	c #9C9C99",
"&+	c #2D251E",
"*+	c #5D4D40",
"=+	c #6B5545",
"-+	c #2B1F16",
";+	c #C0B199",
">+	c #E7E1D6",
",+	c #756B5F",
"'+	c #18130F",
")+	c #100D0A",
"!+	c #595551",
"~+	c #B7B7B6",
"{+	c #585958",
"]+	c #A9A9A7",
"^+	c #6E6F6E",
"/+	c #C6C8C6",
"(+	c #8E8E8E",
"_+	c #F2F2F2",
":+	c #E8E8E8",
"<+	c #A0A0A0",
"[+	c #9C9C9C",
"}+	c #F0F0F0",
"|+	c #8D8D8D",
"1+	c #777775",
"2+	c #AAAAA9",
"3+	c #74726F",
"4+	c #271F1A",
"5+	c #58483B",
"6+	c #695442",
"7+	c #39291D",
"8+	c #231D1A",
"9+	c #B7A994",
"0+	c #F3ECDA",
"a+	c #DAD4C9",
"b+	c #5F524A",
"c+	c #94918D",
"d+	c #717271",
"e+	c #B6B6B5",
"f+	c #686866",
"g+	c #7A7A78",
"h+	c #969696",
"i+	c #F3F3F3",
"j+	c #B4B4B4",
"k+	c #E5E5E5",
"l+	c #A2A2A2",
"m+	c #EDEDED",
"n+	c #AAAAAA",
"o+	c #D9D9D9",
"p+	c #727271",
"q+	c #93918E",
"r+	c #27211B",
"s+	c #493B30",
"t+	c #715C4B",
"u+	c #463324",
"v+	c #0E0906",
"w+	c #251F1B",
"x+	c #D6C9B2",
"y+	c #FFFBEE",
"z+	c #D2CBC0",
"A+	c #4D4137",
"B+	c #110E0B",
"C+	c #1D1711",
"D+	c #837F7A",
"E+	c #696968",
"F+	c #B5B5B5",
"G+	c #6E6E6C",
"H+	c #D9D9D8",
"I+	c #F4F4F4",
"J+	c #A6A6A6",
"K+	c #E2E2E2",
"L+	c #9D9D9D",
"M+	c #A5A5A5",
"N+	c #A3A3A3",
"O+	c #908E8D",
"P+	c #251F19",
"Q+	c #3A2C24",
"R+	c #6F5C4B",
"S+	c #4F3A2A",
"T+	c #150F0B",
"U+	c #171411",
"V+	c #B4A796",
"W+	c #DACBB2",
"X+	c #FEFAEE",
"Y+	c #DBD3C9",
"Z+	c #352C24",
"`+	c #120F0B",
" @	c #2E261F",
".@	c #8E8E8D",
"+@	c #6C6C6B",
"@@	c #BABBBA",
"#@	c #838383",
"$@	c #ABABAB",
"%@	c #BABABA",
"&@	c #E3E3E3",
"*@	c #ECECEC",
"=@	c #B2B2B2",
"-@	c #DCDCDC",
";@	c #ABADAB",
">@	c #656360",
",@	c #251E17",
"'@	c #2E231B",
")@	c #6E5949",
"!@	c #513B2B",
"~@	c #1F1710",
"{@	c #0D0A08",
"]@	c #C5B7A5",
"^@	c #E5DCCA",
"/@	c #A0948B",
"(@	c #1E1711",
"_@	c #1C1511",
":@	c #514940",
"<@	c #454544",
"[@	c #969694",
"}@	c #B0B0AE",
"|@	c #7F7F7D",
"1@	c #B0B0B0",
"2@	c #C2C2C2",
"3@	c #C8C8C8",
"4@	c #BBBBBB",
"5@	c #B9B9B9",
"6@	c #B7B7B7",
"7@	c #DFDFDF",
"8@	c #B6B6B6",
"9@	c #D3D3D3",
"0@	c #4A4948",
"a@	c #261F1B",
"b@	c #32251C",
"c@	c #543F2E",
"d@	c #493526",
"e@	c #120D09",
"f@	c #16120F",
"g@	c #5F5248",
"h@	c #221912",
"i@	c #554437",
"j@	c #ADA9A6",
"k@	c #3A3A3A",
"l@	c #232322",
"m@	c #444544",
"n@	c #9FA09F",
"o@	c #C5C5C5",
"p@	c #BFBFBF",
"q@	c #BEBEBE",
"r@	c #B1B1B1",
"s@	c #9F9F9F",
"t@	c #808080",
"u@	c #909090",
"v@	c #4B4B4B",
"w@	c #4A4A4A",
"x@	c #2A2A29",
"y@	c #443C36",
"z@	c #291E15",
"A@	c #19120D",
"B@	c #9A9088",
"C@	c #0E0E0E",
"D@	c #1B1B1A",
"E@	c #4A4B4A",
"F@	c #DCDDDC",
"G@	c #F1F1F1",
"H@	c #F5F5F5",
"I@	c #373737",
"J@	c #242424",
"K@	c #080808",
"L@	c #292726",
"M@	c #1C1714",
"N@	c #1F1F1F",
"O@	c #E0E0E0",
"P@	c #D1D1D1",
"Q@	c #CFCFCF",
"R@	c #CECECE",
"S@	c #C9C9C9",
"T@	c #757575",
"U@	c #343434",
"V@	c #1B1B1B",
"W@	c #292929",
"X@	c #545454",
"Y@	c #ADADAD",
"Z@	c #3B3B3B",
"`@	c #D5D5D5",
" #	c #DBDBDB",
".#	c #D8D8D8",
"+#	c #464646",
"@#	c #252828",
"##	c #050505",
"$#	c #0F0E0C",
"%#	c #0C0F0F",
"&#	c #2D302E",
"*#	c #C0C0C0",
"=#	c #BDBDBD",
"-#	c #272727",
";#	c #404040",
">#	c #E1E1E1",
",#	c #DEDEDE",
"'#	c #D7D7D7",
")#	c #181B1B",
"!#	c #374845",
"~#	c #242D2C",
"{#	c #303636",
"]#	c #363D3C",
"^#	c #595D5A",
"/#	c #23221F",
"(#	c #949494",
"_#	c #4F4F4F",
":#	c #222222",
"<#	c #444444",
"[#	c #939393",
"}#	c #262626",
"|#	c #161917",
"1#	c #0A0B0A",
"2#	c #080908",
"3#	c #090B0A",
"4#	c #161716",
"5#	c #303030",
"6#	c #0E0E0C",
"7#	c #2B3534",
"8#	c #555856",
"9#	c #515251",
"0#	c #8E8E8B",
"a#	c #A5A3A0",
"b#	c #0C0C0C",
"c#	c #747474",
"d#	c #3D3D3D",
"e#	c #2E2E2E",
"f#	c #2D2D2D",
"g#	c #525252",
"h#	c #7F7F7F",
"i#	c #151515",
"j#	c #1F221E",
"k#	c #362E2A",
"l#	c #050705",
"m#	c #070C08",
"n#	c #232D25",
"o#	c #393939",
"p#	c #151513",
"q#	c #191F1E",
"r#	c #6F6F6E",
"s#	c #8A8B8A",
"t#	c #CDCCCA",
"u#	c #0A0B0B",
"v#	c #727272",
"w#	c #484848",
"x#	c #2B2B2B",
"y#	c #333333",
"z#	c #424242",
"A#	c #6E6E6E",
"B#	c #1E1E1E",
"C#	c #7A5551",
"D#	c #C2827C",
"E#	c #C4A6A3",
"F#	c #271E1C",
"G#	c #0D0C0A",
"H#	c #313432",
"I#	c #363B37",
"J#	c #CBCBCB",
"K#	c #070808",
"L#	c #171F1E",
"M#	c #7C7D7C",
"N#	c #111313",
"O#	c #666666",
"P#	c #3F3F3F",
"Q#	c #494949",
"R#	c #181615",
"S#	c #974B46",
"T#	c #482521",
"U#	c #B25851",
"V#	c #DEC0BD",
"W#	c #3C3535",
"X#	c #010101",
"Y#	c #262827",
"Z#	c #1C2221",
"`#	c #8B8B8B",
" $	c #D1D2D2",
".$	c #D8D9D8",
"+$	c #080909",
"@$	c #4D4D4D",
"#$	c #5D5D5D",
"$$	c #040202",
"%$	c #391D1A",
"&$	c #7D312B",
"*$	c #B04D45",
"=$	c #C47168",
"-$	c #33201F",
";$	c #292B2A",
">$	c #CDCDCD",
",$	c #CCCCCC",
"'$	c #0E0D0C",
")$	c #212926",
"!$	c #999997",
"~$	c #BBBDBD",
"{$	c #DFE0E0",
"]$	c #141414",
"^$	c #282828",
"/$	c #5F5F5F",
"($	c #414141",
"_$	c #080606",
":$	c #833C34",
"<$	c #8D3F37",
"[$	c #9C413B",
"}$	c #9A413A",
"|$	c #261615",
"1$	c #242524",
"2$	c #CACACA",
"3$	c #1C1E1D",
"4$	c #29322E",
"5$	c #D2D3D2",
"6$	c #D7D7D6",
"7$	c #111111",
"8$	c #919191",
"9$	c #2C2C2C",
"0$	c #0D0D0D",
"a$	c #636363",
"b$	c #9D524A",
"c$	c #9F3C34",
"d$	c #994037",
"e$	c #9C4841",
"f$	c #151716",
"g$	c #6C6C6C",
"h$	c #24201D",
"i$	c #323530",
"j$	c #2E2E28",
"k$	c #343532",
"l$	c #353532",
"m$	c #212121",
"n$	c #3C3C3C",
"o$	c #686868",
"p$	c #0F0F0F",
"q$	c #060606",
"r$	c #8D5651",
"s$	c #9D3D36",
"t$	c #9C453D",
"u$	c #A35149",
"v$	c #2C1F1E",
"w$	c #1B1C1B",
"x$	c #C6C6C6",
"y$	c #BDB4A9",
"z$	c #B0AAA5",
"A$	c #979796",
"B$	c #828282",
"C$	c #626262",
"D$	c #090909",
"E$	c #684946",
"F$	c #8A362E",
"G$	c #97453F",
"H$	c #9C5A54",
"I$	c #261716",
"J$	c #191C1A",
"K$	c #C4C4C4",
"L$	c #C3C3C3",
"M$	c #5C5C5C",
"N$	c #171717",
"O$	c #392423",
"P$	c #632E29",
"Q$	c #96453D",
"R$	c #88544F",
"S$	c #291D1C",
"T$	c #010000",
"U$	c #121513",
"V$	c #1C1C1C",
"W$	c #7A7A7A",
"X$	c #1A1B1B",
"Y$	c #885A56",
"Z$	c #753B36",
"`$	c #804F4B",
" %	c #904F49",
".%	c #282020",
"+%	c #151715",
"@%	c #949790",
"#%	c #626362",
"$%	c #282C23",
"%%	c #36412B",
"&%	c #202E15",
"*%	c #8B8E88",
"=%	c #394131",
"-%	c #A0A59A",
";%	c #1E2020",
">%	c #524442",
",%	c #65403C",
"'%	c #69514E",
")%	c #875551",
"!%	c #2A2424",
"~%	c #070505",
"{%	c #202120",
"]%	c #B0B4AB",
"^%	c #9DA694",
"/%	c #778B65",
"(%	c #6B8258",
"_%	c #6E855A",
":%	c #7F8E6F",
"<%	c #778868",
"[%	c #60774B",
"}%	c #607254",
"|%	c #3F5431",
"1%	c #394B30",
"2%	c #35422E",
"3%	c #30402C",
"4%	c #30412C",
"5%	c #2B3A2B",
"6%	c #2E3F2B",
"7%	c #3C562A",
"8%	c #425F2C",
"9%	c #A2AB99",
"0%	c #3D4A35",
"a%	c #638052",
"b%	c #3B4A30",
"c%	c #21291A",
"d%	c #241918",
"e%	c #4B3533",
"f%	c #6B4F4D",
"g%	c #392D2A",
"h%	c #180C0C",
"i%	c #152215",
"j%	c #161E15",
"k%	c #1F291F",
"l%	c #222C23",
"m%	c #29352B",
"n%	c #2B392D",
"o%	c #2E3F2E",
"p%	c #32452E",
"q%	c #32422E",
"r%	c #2D3B2E",
"s%	c #2A392C",
"t%	c #2D422E",
"u%	c #2A362B",
"v%	c #2C3C2C",
"w%	c #2C3C2D",
"x%	c #2C3B2D",
"y%	c #2B3B2C",
"z%	c #30402A",
"A%	c #394F2B",
"B%	c #45632E",
"C%	c #415F2C",
"D%	c #3F6232",
"E%	c #406634",
"F%	c #416330",
"G%	c #3D592C",
"H%	c #405F30",
"I%	c #3F5F2E",
"J%	c #42482C",
"K%	c #191210",
"L%	c #0F0908",
"M%	c #080505",
"N%	c #070B07",
"O%	c #080D09",
"P%	c #0B0F0B",
"Q%	c #121A0F",
"R%	c #1B2917",
"S%	c #293B1F",
"T%	c #394E2D",
"U%	c #3B5930",
"V%	c #406532",
"W%	c #44652E",
"X%	c #446630",
"Y%	c #354F30",
"Z%	c #29362B",
"`%	c #2A362C",
" &	c #2B3A2C",
".&	c #2C3B2A",
"+&	c #304129",
"@&	c #303F2D",
"#&	c #446C37",
"$&	c #446934",
"%&	c #446332",
"&&	c #405F2D",
"*&	c #416531",
"=&	c #446531",
"-&	c #3D6232",
";&	c #3B562B",
">&	c #374827",
",&	c #3F2B25",
"'&	c #31341F",
")&	c #1D1C11",
"!&	c #1E2312",
"~&	c #253719",
"{&	c #243518",
"]&	c #233317",
"^&	c #2C3D1C",
"/&	c #375125",
"(&	c #42602D",
"_&	c #466630",
":&	c #44632E",
"<&	c #3C552D",
"[&	c #293A28",
"}&	c #2A3B27",
"|&	c #314527",
"1&	c #2C3D22",
"2&	c #1E2A19",
"3&	c #212E1B",
"4&	c #253321",
"5&	c #2A3A26",
"6&	c #446933",
"7&	c #426531",
"8&	c #3C6032",
"9&	c #34512B",
"0&	c #354B23",
"a&	c #27371A",
"b&	c #2B3D1C",
"c&	c #28391B",
"d&	c #334921",
"e&	c #395125",
"f&	c #3D5829",
"g&	c #3A5226",
"h&	c #395129",
"i&	c #3C592D",
"j&	c #3F6332",
"k&	c #42652E",
"l&	c #42632E",
"m&	c #3C592A",
"n&	c #233217",
"o&	c #0B0F09",
"p&	c #26341E",
"q&	c #24321B",
"r&	c #2E4122",
"s&	c #202C1B",
"t&	c #27361E",
"u&	c #233219",
"v&	c #3B5527",
"w&	c #3C5628",
"x&	c #334922",
"y&	c #36542B",
"z&	c #334A22",
"A&	c #30441F",
"B&	c #374F25",
"C&	c #324821",
"D&	c #344A22",
"E&	c #314520",
"                                                                                                ",
"                                                                                                ",
"                                                                                                ",
"                                                                                                ",
"                                                .                                               ",
"                                              + @ #                                             ",
"                            $ % & * = $     - ; > , '                                           ",
"                            ) ! ~ { ] ^   / ( _ : < [ }                                         ",
"                            | 1 2 3 4 5 6 7 8 9 0 a b c d                                       ",
"                            e f g h i j k l m n o p q r s t                                     ",
"                            u v w x y z A m B C D E F G H I t                                   ",
"                            J K L M N O P Q R S T U V W X Y Z `  .                              ",
"                            ..+.@.#.$.%.&.*.=.-.;.>.,.'.).!.~.{.` ].                            ",
"                            ^./.(._.:.<.[.}.R |.1.2.1.3.4.5.6.7.8.9.0.                          ",
"                          a.b.c.d.e.f.g.h.i.j.k.l.m.n.o.p.q.r.s.t.u.9.}                         ",
"                        v.w.x.y.z.A.B.U C.D.E.F.l.G.H.I.J.m.K.L.M.N.O.P.Q.                      ",
"                      R.S.T.U.V.W.g.C.}.h.X.Y.Z.`. +.+++H.@+#+$+%+&+*+=+-+`                     ",
"                    ;+>+,+'+)+!+~+{+]+^+/+(+_+I.:+<+.+[+}+|+l.1+2+3+4+5+6+7+` 8+                ",
"                9+0+a+b+)+'+c+d+e+f+e+g+Y.h+i+j+k+l+m+++.+n+`.|+o+p+q+r+s+t+u+v+w+              ",
"              x+y+z+A+B+C+D+h.E+F+G+H+ +I+J+}+n+K+L+l.M+.+N+n.I.1.[+C.O+P+Q+R+S+T+U+            ",
"          V+W+X+Y+Z+`+ @L..@C.+@@@#@i+$@i+j+Y.%@&@I.n.I.*@I.k+C.1.=@-@;@>@,@'@)@!@~@{@          ",
"          ]@^@/@(@_@:@<@C [@}@|@n.1@.+2@}+3@H.4@K+%@K+5@n.6@7@n+-@8@J.9@2.0@a@b@c@d@e@f@        ",
"            g@h@i@j@k@l@m@n@B.j+o@6@p@1@q@r@6@J+=@++L+s@ +t@L+u@I.G.$@1@v@w@x@y@z@A@9           ",
"              B@4@C@$ D@E@F@.+}+G@I+H@i+i+I+H@H@I+_+i+I+I+_+}+H..+:+J.6@I@J@$ K@L@M@$           ",
"                $ $ $ N@k.:+n.`.l.k+K+1.l.`.`.k+1.O@J.o+P@,.,.P@Q@R@S@T@U@V@$ $ $ $ $           ",
"                    $ W@X@o@S@3@4@%@p@5@8@M+J+$@Y@C.n+r@C.o.N+o.L+J+r@i.W@J@$ $ $               ",
"                      Z@X@3@1.1.K+J.-@`@9@#+ #E.o+.#+#@###$#%#&#+#*#=#v@J@-#$                   ",
"                      ;#i.o.&@K+>#7@,#J.-@R@C..#'#Q@)#!#~#{#]#^#/#(#F+_#:#-#$                   ",
"                      <#2.[#>#}#|#1#2#3#4#5#X@r@C.o.6#7#8#9#0#a#b#c#J+d#e#f#$                   ",
"                      g#v@h#o+i#j#k#l#$ m#n#o#`@#+,.p#q#r#h#s#t#u#v#q@w#x#y#$                   ",
"                      2.z#A#,#B#C#D#E#F#G#H#I#J#q@4@K#L#M#h#q@'#N#O#F+P#V@<#$                   ",
"                      A#Q#T@-@R#S#T#U#V#W#X#Y#++h+h+K@Z#`#l+ $.$+$z#F.B#i#@$$                   ",
"                      #$Z@@+o+$$%$&$*$=$-$$ ;$Q@>$,$'$)$!$~${$1.]$>.<+^$b#f#$                   ",
"                      /$($A#o+_$:$<$[$}$|$$ 1$>$,$2$3$4$5$'#7@6$7$k.8$9$0$5#$                   ",
"                      m.e#a$'#K@b$c$d$e$|$$ f$M+++g$h$i$j$3$k$l$m$n$o$-#p$5#                    ",
"                      @+d#P#,.q$r$s$t$u$v$$ w$S@3@x$y$z$A$B$C$a$>.<#O#n$p$5#                    ",
"                      A#>.d#q@D$E$F$G$H$I$$ J$3@o@K$L$2@*#q@=#J+1@C$M$o#N$f#                    ",
"                      c#A#<#Y@D$O$P$Q$R$S$T$U$6@F+n+<+<+[+h+(+t@a$/$w@V$V@9$                    ",
"                        W$n$=@X$Y$Z$`$ %.%X#+%6@8@8@j+r@1@N+ +@%h+Z.#%$%%%&%                    ",
"                        *%=%-%;%>%,%'%)%!%~%{%]%^%/%(%_%:%<%[%}%|%1%2%3%4%5%6%7%8%              ",
"                        9%0%a%b%c%d%e%f%g%h%i%j%k%l%m%n%o%p%q%r%s%t%u%v%w%x%y%z%A%              ",
"                  B%C%D%E%F%G%H%I%J%I$K%L%M%N%O%P%Q%R%S%T%U%V%W%X%Y%Z%`% & &.&+&6%@&            ",
"                #&$&%&&&*&=&*&-&;&>&,&'&)&!&~&{&]&^&/&(&_&_&:&<&[&}&|&1&2&3&4&5&                ",
"                  6&7&8&9&0&a&b&c&d&e&f&g&h&i&j&k&k&l&m&n&  o&p&q&r&s&t&u&                      ",
"                            v&w&x&        y&z&      A&x&B&C&D&E&                                ",
"                                                                                                ",
"                                                                                                ",
"                                                                                                "};
